<?xml version="1.0" standalone="no"?>
<!DOCTYPE svg PUBLIC "-//W3C//DTD SVG 20010904//EN"
 "http://www.w3.org/TR/2001/REC-SVG-20010904/DTD/svg10.dtd">
<svg version="1.0" xmlns="http://www.w3.org/2000/svg"
 width="512.000000pt" height="512.000000pt" viewBox="0 0 512.000000 512.000000"
 preserveAspectRatio="xMidYMid meet">
<metadata>
Created by potrace 1.11, written by Peter Selinger 2001-2013
</metadata>
<g transform="translate(0.000000,512.000000) scale(0.100000,-0.100000)"
fill="#000000" stroke="none">
<path d="M2053 4946 c-85 -21 -164 -67 -233 -136 -214 -213 -330 -501 -330
-819 0 -197 35 -347 121 -516 70 -136 124 -202 393 -473 l260 -262 58 57 58
57 -258 261 c-323 325 -379 407 -444 643 -31 111 -31 373 0 484 65 237 209
451 350 520 58 29 76 33 142 32 152 -2 257 -86 309 -246 14 -43 44 -68 81 -68
42 0 66 26 91 96 30 85 90 153 167 190 46 22 72 28 132 28 66 1 84 -3 142 -32
141 -69 285 -283 350 -520 18 -64 21 -105 21 -242 0 -185 -13 -252 -77 -400
-57 -132 -119 -214 -308 -406 l-178 -180 58 -57 58 -58 195 199 c211 215 272
299 336 457 71 177 92 310 81 505 -14 266 -107 498 -281 701 -35 41 -90 92
-121 113 -195 129 -443 107 -609 -54 l-59 -57 -43 46 c-114 121 -299 176 -462
137z"/>
<path d="M957 4064 c-168 -30 -345 -109 -431 -190 -107 -103 -151 -216 -144
-374 3 -90 7 -104 44 -179 l40 -80 -62 -31 c-197 -97 -305 -315 -261 -526 34
-160 177 -364 354 -504 68 -55 181 -126 187 -119 2 2 20 34 40 70 l36 67 -77
48 c-144 89 -314 284 -364 415 -12 32 -19 75 -19 122 0 185 144 317 346 317
45 0 56 4 73 26 31 40 27 81 -11 113 -83 69 -126 121 -147 175 -51 137 -2 297
115 375 54 35 175 84 266 107 35 8 123 17 197 20 74 2 136 5 137 7 0 1 4 37 7
80 l5 77 -126 -1 c-70 0 -162 -7 -205 -15z"/>
<path d="M3790 4072 c-32 -7 -35 -10 -34 -42 0 -19 4 -57 8 -83 6 -38 11 -47
23 -43 45 18 224 18 323 1 230 -38 374 -117 438 -240 23 -43 27 -63 27 -135 0
-73 -4 -93 -28 -142 -17 -35 -46 -73 -74 -95 -84 -70 -93 -81 -93 -112 0 -17
10 -41 23 -55 19 -22 32 -26 100 -31 131 -8 226 -64 282 -167 24 -44 30 -68
33 -138 4 -83 3 -87 -38 -168 -42 -83 -128 -200 -191 -258 -43 -40 -156 -124
-198 -147 l-33 -17 38 -68 c20 -37 38 -69 40 -71 6 -7 119 64 187 119 177 140
320 344 354 504 44 211 -67 435 -263 528 l-60 28 40 81 c37 75 41 89 44 179 9
219 -84 369 -293 471 -154 75 -266 101 -460 104 -88 2 -176 1 -195 -3z"/>
<path d="M2372 3814 c-91 -45 -138 -130 -130 -234 6 -77 46 -144 112 -185 44
-27 58 -30 128 -30 l78 0 20 -53 c32 -84 39 -130 40 -232 0 -106 -15 -172 -78
-335 l-38 -100 -105 3 c-185 5 -397 52 -564 125 l-76 34 -2 75 c-2 64 -6 82
-32 124 -19 30 -49 60 -79 79 -44 27 -58 30 -126 30 -68 0 -82 -3 -126 -30
-30 -19 -60 -49 -79 -79 -27 -44 -30 -58 -30 -126 0 -68 3 -82 30 -126 61 -98
182 -139 294 -98 l50 17 88 -40 c176 -81 401 -138 599 -150 l104 -6 -6 -26
c-4 -14 -20 -58 -36 -97 -51 -127 -123 -225 -227 -310 l-64 -53 -31 26 c-75
63 -181 81 -262 44 -176 -80 -194 -324 -30 -425 38 -24 63 -31 115 -34 57 -3
73 0 121 25 63 33 116 102 126 164 5 32 15 43 58 72 129 85 256 235 327 384
l41 87 51 -100 c41 -80 67 -114 132 -179 92 -92 161 -136 275 -175 78 -27 83
-31 113 -81 21 -36 48 -63 81 -84 44 -27 58 -30 126 -30 68 0 82 3 126 30 30
19 60 49 79 79 27 44 30 58 30 126 0 68 -3 82 -30 126 -89 143 -303 153 -398
18 -35 -50 -36 -50 -134 -3 -129 62 -209 151 -302 337 l-41 82 119 0 c66 0
155 5 198 11 162 22 372 108 505 206 55 41 62 43 90 34 79 -28 201 2 255 60
55 61 77 165 52 250 -28 91 -124 159 -226 159 -63 0 -131 -25 -172 -63 -57
-53 -88 -180 -62 -250 9 -23 5 -29 -60 -72 -177 -119 -377 -175 -628 -175 -75
0 -82 2 -76 18 85 207 116 374 97 519 -12 88 -44 199 -76 262 -16 30 -16 35 0
76 25 65 16 150 -22 211 -65 106 -202 144 -312 88z m142 -145 c58 -27 55 -115
-5 -139 -63 -26 -125 36 -100 99 19 44 60 60 105 40z m1200 -640 c58 -27 55
-115 -5 -139 -63 -26 -125 36 -100 99 19 44 60 60 105 40z m-2160 -80 c58 -27
55 -115 -5 -139 -63 -26 -125 36 -100 99 19 44 60 60 105 40z m1840 -960 c58
-27 55 -115 -5 -139 -63 -26 -125 36 -100 99 19 44 60 60 105 40z m-1441 -80
c32 -15 51 -69 36 -102 -40 -88 -176 -27 -140 62 19 44 60 60 104 40z"/>
<path d="M1680 2505 c-180 -30 -276 -57 -386 -109 -268 -127 -463 -330 -578
-603 -119 -281 -121 -633 -6 -814 65 -100 180 -181 299 -209 53 -12 189 -9
239 6 20 6 22 3 22 -28 0 -51 33 -159 65 -214 46 -79 122 -147 211 -190 73
-35 87 -39 181 -42 128 -5 261 26 412 98 409 196 663 594 664 1040 0 115 -46
464 -64 484 -7 7 -146 -8 -156 -17 -1 -2 11 -88 27 -192 33 -213 37 -313 15
-436 -65 -373 -323 -668 -685 -784 -122 -39 -227 -44 -304 -15 -72 27 -141 92
-176 165 -30 64 -33 175 -7 252 17 47 17 54 3 81 -28 54 -81 57 -151 7 -137
-98 -313 -81 -424 41 -75 82 -86 124 -85 329 0 155 3 178 27 258 75 244 214
433 413 563 142 93 269 136 498 170 l118 18 -7 60 c-8 74 -15 106 -24 105 -3
-1 -67 -12 -141 -24z"/>
<path d="M3367 2497 c-3 -8 -8 -43 -12 -79 l-7 -66 73 -12 c157 -25 245 -51
354 -104 346 -170 555 -505 555 -891 0 -177 -27 -262 -108 -337 -115 -106
-278 -115 -407 -23 -73 51 -130 46 -155 -14 -10 -25 -9 -37 6 -78 65 -168 -33
-369 -204 -419 -160 -47 -448 52 -637 218 l-47 41 -56 -57 -57 -57 50 -46
c185 -170 464 -280 683 -271 88 3 105 7 177 42 147 72 242 199 267 359 12 71
14 78 33 72 11 -3 58 -9 106 -12 172 -11 335 71 429 216 113 177 113 528 -1
803 -157 380 -464 628 -877 708 -120 23 -158 25 -165 7z"/>
</g>
</svg>
